<svg width="10" height="10" viewBox="0 0 10 10" fill="none" xmlns="http://www.w3.org/2000/svg">
    <path fill-rule="evenodd" clip-rule="evenodd"
        d="M8.473 2.5h.59c.586 0 .937.476.937 1.063V4a1 1 0 0 1-1 1H5.5V3.5h-1V5H1a1 1 0 0 1-1-1v-.437C0 2.976.413 2.5 1 2.5h.607a1.7 1.7 0 0 1-.2-.812c0-.922.7-1.688 1.58-1.688.444 0 .8.136 1.15.452.22.2.375.47.577.821.085.147.177.308.286.484l.013-.02c.362-.585.622-1.006.93-1.285C6.293.136 6.65 0 7.093 0c.88 0 1.58.766 1.58 1.688 0 .296-.073.571-.2.812M6.5 1.132c-.233.224-.483.63-.927 1.368H7c.5 0 .799-.35.799-.812 0-.464-.331-.813-.705-.813A.8.8 0 0 0 6.81.92a.9.9 0 0 0-.31.212M3.27.92a.8.8 0 0 0-.284-.045c-.374 0-.705.35-.707.813 0 .463.221.812.705.812h1.443c-.154-.256-.275-.473-.377-.655-.192-.343-.318-.567-.47-.713A.9.9 0 0 0 3.27.92"
        fill="#CC7600" />
    <path d="M.5 6v2.813C.5 9.5 1 10 1.688 10h6.75C9 10 9.5 9.5 9.5 8.813V6h-4v4h-1V6z"
        fill="#CC7600" />
</svg>