<svg width="14" height="14" viewBox="0 0 14 14" fill="none" xmlns="http://www.w3.org/2000/svg">
    <path fill-rule="evenodd" clip-rule="evenodd"
        d="M9.312.667c.439 0 .887.062 1.322.206 2.66.862 3.516 3.725 2.774 6.077-.371 1.175-1.102 2.277-1.972 3.14a23 23 0 0 1-3.916 3.053l-.159.095a.67.67 0 0 1-.693-.003l-.156-.097a23.5 23.5 0 0 1-3.933-3.045 8.3 8.3 0 0 1-1.973-3.12C-.251 4.564.886 1.677 3.38.862c.233-.08.496-.16.745-.16.191 0 .383-.035.576-.035.808 0 1.603.223 2.297.637A4.4 4.4 0 0 1 9.312.667M7.403 2.639a.67.67 0 0 1-.807 0A3.2 3.2 0 0 0 4.757 2c-.155 0-.31.007-.463.03-.168.023-.322.038-.485.095-1.844.615-2.5 2.662-1.943 4.411.35.98.912 1.869 1.641 2.6a22 22 0 0 0 3.512 2.747A22.4 22.4 0 0 0 10.5 9.142a6.9 6.9 0 0 0 1.64-2.603c.537-1.72-.086-3.806-1.925-4.4A2.9 2.9 0 0 0 9.31 2a3.14 3.14 0 0 0-1.907.64"
        fill="white" />
    <path
        d="M10.673 6.134a.56.56 0 0 1-.38-.193c-.106-.13-.127-.274-.127-.434 0-.466-.286-.887-.713-1.047a.545.545 0 0 1-.333-.686c.1-.28.4-.427.673-.333A2.2 2.2 0 0 1 11.2 5.547c0 .302-.205.578-.527.587"
        fill="white" />
</svg>