<svg width="12" height="10" viewBox="0 0 12 10" fill="none" xmlns="http://www.w3.org/2000/svg">
    <path fill-rule="evenodd" clip-rule="evenodd"
        d="M1 2.5V2H.5a.5.5 0 0 1 0-1h.768A2 2 0 0 1 3 0h3.5a.5.5 0 0 1 .5.5V5a1 1 0 0 1-1 1H2c-.5 0-1-.25-1-1h.5a.5.5 0 0 0 0-1H1v-.5h1.5a.5.5 0 0 0 0-1zM1 2c0-.364.097-.706.268-1H3.5a.5.5 0 0 1 0 1z"
        fill="#fff" />
    <path
        d="M1 2.5H.5a.5.5 0 0 0 0 1H1zM1 4H.5a.5.5 0 0 0 0 1H1zm.5 2.5a1 1 0 0 0-1 1c0 1.106.894 2 2 2h.085a1.5 1.5 0 1 1 2.83 0h1.17a1.5 1.5 0 1 1 2.83 0H9.5c1.106 0 2-.894 2-2v-1H10c-.551 0-1-.449-1-1V4c0-.551.449-1 1-1h.435l-.711-1.243-.002-.003A1.51 1.51 0 0 0 8.42 1H7.5v4A1.5 1.5 0 0 1 6 6.5z"
        fill="#fff" />
    <path
        d="M10 3.5c-.275 0-.5.225-.5.5v1.5c0 .275.225.5.5.5h1.5V5l-.855-1.5zM8.875 9.484a1 1 0 1 0-1.75-.969 1 1 0 0 0 1.75.97m-5.75-.001a1 1 0 1 1 1.75-.969 1 1 0 0 1-1.75.97"
        fill="#fff" />
</svg>